<?xml version="1.0" encoding="utf-8"?>
<!-- Generator: Adobe Illustrator 16.0.2, SVG Export Plug-In . SVG Version: 6.00 Build 0)  -->
<!DOCTYPE svg PUBLIC "-//W3C//DTD SVG 1.1//EN" "http://www.w3.org/Graphics/SVG/1.1/DTD/svg11.dtd">
<svg version="1.1" id="Ebene_2" xmlns="http://www.w3.org/2000/svg" xmlns:xlink="http://www.w3.org/1999/xlink" x="0px" y="0px"
	 width="144px" height="144px" viewBox="0 0 144 144" enable-background="new 0 0 144 144" xml:space="preserve">
<g>
	<path fill="#FFFFFF" d="M72,138.416c-36.622,0-66.416-29.794-66.416-66.416S35.378,5.584,72,5.584S138.416,35.378,138.416,72
		S108.622,138.416,72,138.416z"/>
	<path fill="#E10012" d="M72,10.584c33.919,0,61.416,27.497,61.416,61.416S105.919,133.416,72,133.416S10.584,105.919,10.584,72
		S38.081,10.584,72,10.584 M72,0.584C32.621,0.584,0.584,32.621,0.584,72S32.621,143.416,72,143.416S143.416,111.379,143.416,72
		S111.379,0.584,72,0.584L72,0.584z"/>
	<path fill="#FFFFFF" d="M72,10.584c33.919,0,61.416,27.497,61.416,61.416S105.919,133.416,72,133.416S10.584,105.919,10.584,72
		S38.081,10.584,72,10.584 M72,3.584C34.275,3.584,3.584,34.275,3.584,72S34.275,140.416,72,140.416S140.416,109.725,140.416,72
		S109.725,3.584,72,3.584L72,3.584z"/>
	<path fill="#E10012" d="M72,10.584c33.919,0,61.416,27.497,61.416,61.416S105.919,133.416,72,133.416S10.584,105.919,10.584,72
		S38.081,10.584,72,10.584 M72,7.584C36.481,7.584,7.584,36.481,7.584,72S36.481,136.416,72,136.416S136.416,107.519,136.416,72
		S107.519,7.584,72,7.584L72,7.584z"/>
</g>
<path fill="#E10012" d="M25.859,39.453C34.649,27.083,48.91,18.17,63.96,16.13c17.68-2.66,36.63,3.69,48.75,16.88
	c-6.98,5.21-23.741,15.896-23.741,15.896C87.719,40.563,82.17,34.55,76,33.55c-4.88-1.01-10.16,1.68-12.26,6.18
	c-1.92,3.69-1.49,11.98-1.49,11.98l18.344,0.124v16.583c0,0-12.354-0.126-18.284-0.066c-0.14,11.23-0.09,22.48-0.02,33.72
	c0,15.805,17.293,25.847,17.293,25.847c-24.458,5.499-49.996-12.943-59.896-34.073C25.75,92.167,35.61,90.85,39.04,84.02
	c3.87-7.7,3.73-16.85,2.15-25.14C39.55,50.36,25.859,39.453,25.859,39.453z"/>
<path fill="#E10012" d="M74.97,75.77c4.89-2.14,11.52-1.06,14.56,3.64c2.91,5.01,3.02,11.15,2.18,16.74
	c-0.64,4.31-2.78,8.67-6.73,10.82c-4.04,2.26-13.25,0.94-13.25,0.94l-0.02-6.27c0,0,5.91,2.19,8.79,0.65
	c2.81-1.29,3.56-4.41,4.27-7.12c-2.51,0.83-4.97,2.45-7.87,1.72C67.25,95.18,66.3,79.5,74.97,75.77z M79.17,80.16
	c-4.93,1.68-3.7,11.29,1.89,10.63C86.91,89.9,84.93,79.13,79.17,80.16z"/>
<path fill="#E10012" d="M94.51,93.44c0.55-5.95,1.34-17.97,1.34-17.97l17.31,0.16l-0.5,6.08l-11.13-0.14c0,0-0.36,3.07-0.01,4.53
	c3.87-0.79,8.36,0.28,10.87,3.48c3.41,4.38,3,11.11-0.54,15.29c-4.57,4.74-18.01,2.19-18.01,2.19l0.33-6.05c0,0,5.07,2.59,7.98,1.75
	c4.25-0.36,6.33-6.21,3.23-9.15C102.42,90.74,97.83,91.93,94.51,93.44z"/>
</svg>
