<?xml version="1.0" encoding="UTF-8" standalone="no"?>
<!DOCTYPE svg PUBLIC "-//W3C//DTD SVG 1.0//EN" "http://www.w3.org/TR/2001/REC-SVG-20010904/DTD/svg10.dtd">
<!-- Created with Inkscape (http://www.inkscape.org/) -->
<svg
        xmlns:svg="http://www.w3.org/2000/svg"
        xmlns="http://www.w3.org/2000/svg"
        version="1.0"
        width="800"
        height="800"
        id="svg2">
    <defs
            id="defs4" />
    <g
            id="layer1">
        <path
                d="M 632.15347,412.09631 A 232.28458,232.28458 0 1 1 167.58432,412.09631 A 232.28458,232.28458 0 1 1 632.15347,412.09631 z"
                transform="matrix(1.5981736,0,0,1.5981736,-237.06966,-257.11171)"
                id="path4801"
                style="opacity:1;fill:#25408f;fill-opacity:1;fill-rule:nonzero;stroke:none;stroke-width:3;stroke-linecap:butt;stroke-linejoin:miter;stroke-miterlimit:4;stroke-dasharray:none;stroke-dashoffset:0;stroke-opacity:1" />
        <path
                d="M 382.97556,55.428668 C 200.71908,65.344901 55.364726,216.82519 55.364726,401.50238 C 55.364726,586.17957 200.71938,737.66022 382.97556,747.5761 L 382.97556,695.13219 C 229.14195,685.34547 107.71515,557.83969 107.71515,401.50238 C 107.71515,245.16455 229.14167,117.61139 382.97556,107.82584 L 382.97556,55.428668 z M 469.07332,69.404362 L 428.73545,77.350409 L 428.73545,694.33758 L 473.60724,694.33758 L 473.60724,214.02242 L 513.89837,295.81996 L 550.123,370.88673 L 550.45019,370.04539 L 613.73811,197.10201 C 664.83319,250.00496 696.28352,322.00582 696.28352,401.50238 C 696.28356,506.29128 641.72121,598.12779 559.42455,650.26039 L 587.65638,694.01039 C 684.32059,632.4179 748.63396,524.31272 748.63395,401.50238 C 748.63395,277.00534 682.57239,167.6078 583.68336,106.47033 L 542.31717,218.13567 L 469.07332,69.404362 z M 186.80169,252.1167 L 186.80169,274.5526 L 186.80169,521.25398 L 186.80169,543.68988 L 209.23759,543.68988 L 317.91146,543.68988 C 356.31979,543.68988 387.93014,512.07953 387.93016,473.67119 L 387.93016,322.18214 C 387.93016,283.77381 356.31979,252.1167 317.91146,252.1167 L 209.23759,252.1167 L 186.80169,252.1167 z M 231.67348,296.9885 L 317.91146,296.9885 C 332.23695,296.9885 343.05836,307.85662 343.05836,322.18214 L 343.05836,473.67119 C 343.05836,487.99676 332.23698,498.81809 317.91146,498.81809 L 231.67348,498.81809 L 231.67348,296.9885 z"
                id="path4799"
                style="opacity:1;fill:#ffffff;fill-opacity:1;fill-rule:nonzero;stroke:none;stroke-width:37.94554138;stroke-linecap:butt;stroke-linejoin:miter;stroke-miterlimit:4;stroke-dasharray:none;stroke-dashoffset:0;stroke-opacity:1" />
    </g>
</svg>
