<?xml version="1.0" encoding="utf-8"?>
<!DOCTYPE svg PUBLIC "-//W3C//DTD SVG 1.1//EN" "http://www.w3.org/Graphics/SVG/1.1/DTD/svg11.dtd" [
        <!ENTITY ns_svg "http://www.w3.org/2000/svg">
        <!ENTITY ns_xlink "http://www.w3.org/1999/xlink">
        ]>
<svg  version="1.1" id="HQFL" xmlns="&ns_svg;" xmlns:xlink="&ns_xlink;" width="506.66" height="621.711"
viewBox="0 0 506.66 621.711" overflow="visible" enable-background="new 0 0 506.66 621.711" xml:space="preserve">
<polygon fill="#FFCC17" points="0,0 0,494.61 253.327,621.711 506.66,494.606 506.66,0 "/>
<path fill="#0678B3" d="M12.04,487.18c0-4.321,0-356.779,0-361.354c3.52,0,479.194,0,482.58,0c0,8.793,0,359.649,0,361.351
c-3.662,1.838-239.068,119.948-241.293,121.065C248.116,605.627,18.431,490.387,12.04,487.18z"/>
<path fill="#FFFFFF" d="M494.62,487.176c0-1.701,0-22.357,0-53.003L156.657,125.826c-78.766,0-141.097,0-144.617,0
c0,4.576,0,61.265,0,128.444l335.925,306.489C414.01,527.622,490.958,489.014,494.62,487.176z"/>
<path fill="#DE2400" d="M341.785,12.04c10.754,0,142.082,0,152.835,0c0,10.196,0,91.55,0,101.747H341.785
C341.785,103.59,341.785,22.235,341.785,12.04z"/>
<path fill="#FFFFFF" d="M176.915,12.04c10.753,0,142.078,0,152.832,0v101.747H176.915V12.04z"/>
<path fill="#DE2400" d="M12.04,12.04c10.753,0,142.082,0,152.834,0c0,10.196,0,91.55,0,101.747H12.04
C12.04,103.59,12.04,22.235,12.04,12.04z"/>
<path fill="#0678B3" d="M209.72,220.101v22.936h-32.619V221.63l0,0c0-4.077-0.51-6.626-2.039-7.645
c-1.529-1.529-3.568-2.549-6.625-2.549c-5.606,0-8.665,3.059-8.665,9.174l0,0v4.587l0,0c0,2.548,1.02,5.097,2.549,7.136
c2.548,3.058,11.722,11.722,28.033,25.993c7.645,7.136,12.742,12.743,15.8,17.33c3.057,4.077,4.586,10.704,4.586,18.858
c0,21.406-5.096,31.091-18.857,38.227c-6.626,3.058-15.291,5.097-24.975,5.097c-14.781,0-27.013-4.587-34.148-12.232
c-3.568-4.587-6.116-13.761-6.116-21.406l0,0v-25.484h33.129v25.484l0,0c0,6.626,3.059,9.684,8.155,9.684
c6.625,0,8.665-2.038,8.665-12.232l0,0v-4.587l0,0c0-2.039,0-3.568-1.02-5.097c-1.02-2.548-4.586-6.116-10.704-11.723l0,0
l-22.935-20.897l0,0c-14.271-13.251-16.31-18.858-16.31-31.6c0-17.839,5.606-27.014,18.348-33.639
c6.116-3.058,14.781-4.587,25.485-4.587C196.978,189.52,209.72,201.752,209.72,220.101L209.72,220.101z"/>
<path fill="#0678B3" d="M317.502,325.134v17.328h-33.13v-16.31l0,0c0-5.097-0.51-8.664-1.019-10.193
c-1.529-3.059-4.078-4.588-7.646-4.588c-5.098,0-8.155,3.568-8.155,12.743l0,0v79.511l0,0c0,7.135,3.567,10.702,8.665,10.702
c5.097,0,8.154-3.058,8.154-10.192l0,0V378.65h33.13v20.388l0,0c0,25.994-15.291,38.736-41.794,38.736
c-14.271,0-24.975-4.078-32.62-11.723c-6.116-6.627-9.173-17.33-9.173-31.601l0,0v-62.69l0,0c0-14.781,4.077-25.485,10.703-31.601
c3.059-3.568,7.136-5.606,11.214-7.136c6.116-2.548,13.25-3.567,21.915-3.567c20.389,0,31.091,6.625,36.188,17.329
C316.482,312.391,317.502,318.508,317.502,325.134L317.502,325.134z"/>
</svg>
